<?xml version="1.0" encoding="UTF-8" standalone="no"?>
<!-- Created with Inkscape (http://www.inkscape.org/) -->

<svg
   xmlns:dc="http://purl.org/dc/elements/1.1/"
   xmlns:cc="http://creativecommons.org/ns#"
   xmlns:rdf="http://www.w3.org/1999/02/22-rdf-syntax-ns#"
   xmlns:svg="http://www.w3.org/2000/svg"
   xmlns="http://www.w3.org/2000/svg"
   xmlns:sodipodi="http://sodipodi.sourceforge.net/DTD/sodipodi-0.dtd"
   xmlns:inkscape="http://www.inkscape.org/namespaces/inkscape"
   version="1.1"
   id="svg2"
   width="1365.3333"
   height="1365.3333"
   viewBox="0 0 1365.3333 1365.3333"
   sodipodi:docname="hotline.svg"
   inkscape:version="0.92.3 (2405546, 2018-03-11)">
  <metadata
     id="metadata8">
    <rdf:RDF>
      <cc:Work
         rdf:about="">
        <dc:format>image/svg+xml</dc:format>
        <dc:type
           rdf:resource="http://purl.org/dc/dcmitype/StillImage" />
        <dc:title></dc:title>
      </cc:Work>
    </rdf:RDF>
  </metadata>
  <defs
     id="defs6" />
  <sodipodi:namedview
     pagecolor="#ffffff"
     bordercolor="#666666"
     borderopacity="1"
     objecttolerance="10"
     gridtolerance="10"
     guidetolerance="10"
     inkscape:pageopacity="0"
     inkscape:pageshadow="2"
     inkscape:window-width="1920"
     inkscape:window-height="1027"
     id="namedview4"
     showgrid="false"
     inkscape:zoom="0.48889808"
     inkscape:cx="802.93145"
     inkscape:cy="853.74377"
     inkscape:window-x="1358"
     inkscape:window-y="-8"
     inkscape:window-maximized="1"
     inkscape:current-layer="svg2" />
  <path
     style="fill:#000000;stroke-width:1.33333325"
     d="m 268.66494,1042.8778 c -10.04959,-1.4384 -21.13183,-5.7441 -32.54999,-12.6463 -14.27907,-8.6315 -35.603,-31.99078 -44.95036,-49.24056 -1.5614,-2.88144 -3.3864,-6.13898 -4.05556,-7.23898 -4.77845,-7.85505 -10.28522,-22.75258 -14.74133,-39.87994 -3.23353,-12.4283 -3.58936,-46.14899 -0.64847,-61.45339 2.77375,-14.43452 7.28576,-30.73878 9.80333,-35.42452 0.76107,-1.41652 2.41986,-4.97548 3.68619,-7.90881 7.82563,-18.12733 27.05288,-55.48853 42.54288,-82.66667 5.01551,-8.8 10.62705,-18.69999 12.47012,-21.99999 1.84305,-3.3 4.44635,-7.8 5.78509,-10 1.33874,-2.2 2.85899,-4.9 3.37834,-6 0.51936,-1.1 4.4245,-7.8989 8.67813,-15.10864 4.25363,-7.20976 7.73387,-13.37447 7.73387,-13.69935 0,-0.32489 2.30702,-4.326 5.12672,-8.89136 2.8197,-4.56536 11.03912,-18.50065 18.26537,-30.96732 7.22625,-12.46667 14.23943,-24.16667 15.58481,-26 1.3454,-1.83333 7.13562,-10.53333 12.86715,-19.33333 31.74837,-48.74535 70.42279,-86.87891 106.15589,-104.67129 13.4279,-6.68604 30.6367,-11.99538 38.88,-11.99538 h 4.4533 l 0.016,-30.33333 c 0.021,-39.5389 2.2342,-48.04364 16.118,-61.92742 27.7008,-27.70079 73.6656,-16.47195 86.6124,21.15872 2.278,6.62106 2.5871,11.31796 2.5871,39.31077 v 31.79126 h 82.6667 82.6666 v -31.79126 c 0,-27.99281 0.3091,-32.68971 2.5871,-39.31077 12.9469,-37.63067 58.9117,-48.85951 86.6125,-21.15872 13.8838,13.88378 16.0973,22.38852 16.1179,61.92742 l 0.016,30.33333 h 4.4534 c 8.2216,0 25.4374,5.30216 38.88,11.97438 34.5946,17.17102 73.4914,55.29045 104.7865,102.69229 6.536,9.9 12.93288,19.5 14.21528,21.33333 2.6281,3.75727 25.6649,42.80517 25.6649,43.50269 0,0.2477 2.4901,4.51091 5.5334,9.47383 5.7901,9.44204 7.2227,11.92511 14.4377,25.02348 2.4236,4.4 5.424,9.5 6.6675,11.33333 1.2435,1.83334 2.6636,4.23334 3.1559,5.33334 0.4923,1.1 1.9905,3.8 3.3292,6 2.5857,4.24913 5.854,10.04693 16.5358,29.33333 3.6554,6.6 7.0979,12.6 7.6501,13.33333 3.3128,4.39953 31.1948,59.17956 36.6466,72 1.2474,2.93333 2.8271,6.39047 3.5105,7.68253 2.6052,4.92586 5.7211,16.11726 9.8137,35.24735 3.0612,14.30916 2.799,47.8323 -0.4795,61.31898 -1.3929,5.72979 -2.9591,11.6178 -3.4804,13.08447 -3.0913,8.69739 -10.6802,26.97071 -11.9053,28.66667 -0.7946,1.1 -2.5889,4.1 -3.9875,6.66666 -5.415,9.93776 -15.1405,22.44424 -25.4606,32.74094 -16.7536,16.7158 -33.6393,25.7735 -53.0911,28.479 -13.1047,1.8227 -758.58559,1.7318 -771.34156,-0.094 z m 769.21586,-29.6845 c 11.5053,-2.0527 17.7169,-4.8982 28.0088,-12.8308 18.8516,-14.53018 35.1814,-41.65535 42.6227,-70.80012 5.6967,-22.3117 2.1981,-60.26332 -7.5761,-82.18327 -1.7265,-3.87172 -3.139,-7.37738 -3.139,-7.79034 0,-1.98911 -32.8618,-66.30427 -36.0238,-70.50347 -0.5522,-0.73333 -3.9947,-6.73333 -7.6501,-13.33333 -12.0531,-21.76245 -14.0521,-25.28383 -17.2046,-30.30684 -1.7168,-2.73543 -3.1215,-5.3428 -3.1215,-5.79417 0,-0.45136 -1.115,-2.4133 -2.4778,-4.35983 -1.3628,-1.94653 -4.4608,-7.13916 -6.8845,-11.53916 -7.4096,-13.45173 -9.0409,-16.30129 -12.3542,-21.57972 -1.7562,-2.79781 -4.8544,-8.07641 -6.8849,-11.73021 -6.55348,-11.79267 -23.32008,-39.63146 -32.84218,-54.53002 -15.341,-24.00319 -31.5285,-44.58686 -48.4928,-61.66207 -27.8211,-28.00292 -51.4231,-42.58927 -75.0566,-46.38595 -15.1037,-2.42637 -20.2746,-4.77993 -26.8075,-12.20168 -7.4867,-8.50537 -8.1986,-12.44359 -8.207,-45.39837 0,-17.0654 -0.615,-31.36675 -1.4708,-34.44941 -5.4693,-19.69964 -34.373,-22.04275 -42.3777,-3.43538 -2.5844,6.00751 -2.8108,8.97175 -2.8108,36.79863 0,19.86472 -0.5572,32.15068 -1.6215,35.75282 -2.1638,7.32379 -13.2094,18.36932 -20.5332,20.5332 -7.8489,2.31907 -171.8416,2.31907 -179.6906,0 -7.3238,-2.16388 -18.3693,-13.20941 -20.5332,-20.5332 -1.0643,-3.60214 -1.6215,-15.8881 -1.6215,-35.75282 0,-27.99845 -0.2143,-30.763 -2.8621,-36.91791 -2.9924,-6.95604 -7.7491,-10.49704 -16.693,-12.42662 -10.2383,-2.20886 -22.7486,5.59078 -25.6333,15.98128 -0.8559,3.08266 -1.4664,17.38401 -1.4708,34.44941 -0.01,32.95478 -0.7203,36.893 -8.2071,45.39837 -6.5328,7.42175 -11.7037,9.77531 -26.8074,12.20168 -23.6335,3.79668 -47.2355,18.38303 -75.0566,46.38595 -23.8393,23.99518 -41.29403,48.22447 -70.72065,98.16869 -7.1292,12.1 -15.2692,25.73529 -18.08891,30.30065 -2.81969,4.56536 -5.12672,8.56647 -5.12672,8.89136 0,0.32488 -3.6,6.68848 -8,14.14132 -4.4,7.45284 -8,13.81365 -8,14.13513 0,0.3215 -1.40465,2.8226 -3.12145,5.55803 -1.71679,2.73543 -4.62524,7.67351 -6.46323,10.9735 -1.83797,3.3 -7.44536,13.2 -12.46086,22 -16.50632,28.96135 -37.61307,70.18879 -42.87552,83.74802 -1.19224,3.07192 -2.6003,6.18532 -3.12903,6.91865 -0.52872,0.73333 -1.93103,4.71629 -3.11621,8.85103 -6.9023,24.07967 -8.33495,54.55038 -3.40904,72.50549 12.40329,45.2104 41.25664,78.89728 71.24201,83.17658 4.4,0.6279 176.00001,1.1939 381.33331,1.2578 307.8273,0.096 375.10268,-0.1996 383.41698,-1.6829 z M 443.79712,799.63214 c -42.981,-4.00348 -75.3333,-22.52793 -75.3333,-43.1348 0,-8.85968 10.1739,-21.54884 22.8196,-28.46117 18.8246,-10.28979 41.1861,-14.79673 69.4081,-13.98912 23.9227,0.68459 38.3523,3.76872 55.1056,11.77817 12.901,6.16771 19.5162,11.48883 24.1831,19.45229 12.2206,20.85286 -10.8441,43.20894 -53.4229,51.7816 -9.885,1.99022 -33.6588,3.42076 -42.7602,2.57303 z m 198,-0.048 c -17.2916,-1.49137 -37.0288,-6.87463 -50.6119,-13.8042 -12.3964,-6.32416 -23.9475,-20.45011 -24.0255,-29.381 -0.033,-3.81976 4.2101,-12.44724 8.4445,-17.16881 5.0033,-5.57893 19.8559,-14.39256 30.1929,-17.91667 15.3971,-5.24917 30.4833,-7.56149 49.3333,-7.56149 27.2493,0 50.778,5.64325 67.4628,16.1806 10.1902,6.43574 15.4459,12.20605 18.5713,20.38977 1.9861,5.20044 2.1125,7.01583 0.795,11.41343 -4.4636,14.89801 -25.7918,28.77061 -53.2243,34.61893 -11.765,2.50817 -35.982,4.17432 -46.9381,3.22939 z m 195.3333,-0.46765 c -33.3904,-3.79332 -59.295,-16.2747 -67.6117,-32.57679 -3.7422,-7.33529 -3.5039,-13.98296 0.7619,-21.26213 4.6669,-7.96347 11.2822,-13.28459 24.1832,-19.45229 16.8867,-8.07322 31.1648,-11.10516 55.4367,-11.772 21.3091,-0.58544 33.7861,0.90301 49.8966,5.95245 23.932,7.50091 42,23.19926 42,36.49166 0,16.9299 -24.2251,34.25323 -56.6667,40.52228 -12.2888,2.37471 -36.3151,3.42427 -48,2.09682 z M 479.79712,687.82158 c -9.9016,-1.92744 -23.1379,-6.47502 -28.6666,-9.84896 -5.2158,-3.18298 -12.0432,-9.86877 -14.1138,-13.82105 -9.3713,-17.88804 18.6855,-36.81551 58.1137,-39.20415 31.7914,-1.92598 66.3927,12.38044 70.0334,28.95634 2.8193,12.83632 -14.2299,27.15761 -38.8168,32.60592 -13.0345,2.88837 -35.2369,3.5141 -46.5499,1.3119 z m 152.6667,-0.5897 c -17.9821,-3.97746 -26.2226,-7.73927 -34.9792,-15.96807 -9.2442,-8.68695 -9.6807,-17.82205 -1.2953,-27.10372 18.8597,-20.87548 72.8807,-25.59535 105.3506,-9.2046 8.7193,4.40149 16.9737,12.95265 18.2905,18.94821 1.9499,8.87776 -6.626,20.07278 -20.3008,26.50068 -17.8616,8.39594 -46.7014,11.33191 -67.0658,6.8275 z m 157.5776,0.44986 c -17.2534,-3.15106 -28.6579,-8.02992 -37.5511,-16.06445 -18.375,-16.60068 -1.7705,-37.22077 35.9735,-44.67308 39.6898,-7.83653 86.6666,8.50115 86.6666,30.14109 0,6.44158 -6.7342,15.23276 -16,20.88727 -16.0172,9.77461 -45.8078,13.96112 -69.089,9.70917 z m -292.2443,-89.24632 c -10.5592,-2.46217 -15.9291,-4.60515 -22.1729,-8.84859 -11.2265,-7.62987 -9.3524,-15.71738 5.3053,-22.89458 27.6109,-13.51972 79.1787,-9.30893 93.1713,7.60792 7.4481,9.00472 -5.4097,19.81039 -29.3693,24.68188 -9.4314,1.9176 -37.7824,1.5874 -46.9344,-0.54663 z m 129.7725,-0.71661 c -12.0829,-3.12322 -19.1539,-6.72116 -23.6048,-12.01068 -4.3714,-5.19506 -4.3714,-6.71725 0,-11.91232 16.8683,-20.04677 85.463,-20.04677 102.3312,0 4.3714,5.19507 4.3714,6.71726 0,11.91232 -4.5447,5.40114 -11.5158,8.87755 -24.2236,12.08005 -13.8746,3.49659 -40.8399,3.46227 -54.5028,-0.0693 z m 135.5608,0.71661 c -13.8892,-3.23865 -21.9933,-7.21453 -26.9703,-13.23165 -10.3424,-12.50384 16.9353,-26.50565 51.637,-26.50565 32.1515,0 57.423,11.50191 53.3648,24.28809 -1.7847,5.62292 -15.9718,12.92055 -31.0971,15.99584 -9.4314,1.9176 -37.7824,1.5874 -46.9344,-0.54663 z m -493.33324,10.38544 c -4.43659,-0.47948 -18.44136,-3.81068 -30,-7.13585 -13.62663,-3.92011 -32.12646,-14.58245 -43.80047,-25.24433 -7.41153,-6.76896 -18.60355,-24.52817 -22.28128,-35.35537 -2.87469,-8.46308 -3.21374,-12.0258 -3.63625,-38.20967 -0.45004,-27.88988 -0.34275,-29.34343 3.14059,-42.54969 3.9336,-14.91333 12.84549,-33.58832 22.00738,-46.11675 17.25061,-23.58937 48.89773,-48.38588 82.57003,-64.69621 18.48376,-8.95324 46.19233,-20.03969 59.33333,-23.7398 2.2,-0.61945 7.3,-2.09237 11.33333,-3.27316 4.03333,-1.18077 10.93328,-3.05418 15.33328,-4.16313 4.4,-1.10893 11.3,-2.89016 15.3334,-3.95827 4.0333,-1.0681 12.1333,-2.87476 18,-4.01478 5.8666,-1.14002 12.7666,-2.61152 15.3333,-3.27 2.5667,-0.65848 9.4667,-1.86911 15.3333,-2.6903 5.8667,-0.82118 15.7667,-2.34196 22,-3.37949 6.2333,-1.03753 16.4333,-2.47287 22.6667,-3.18963 6.2333,-0.71674 17.3333,-2.00609 24.6666,-2.86518 7.3334,-0.8591 16.9334,-1.71722 21.3334,-1.90694 4.4,-0.18972 16.1,-0.99833 26,-1.79692 43.1115,-3.47758 111.7094,-4.34109 170.6666,-2.14836 31.1667,1.15915 60.5537,2.62696 65.3044,3.2618 4.7508,0.63484 9.0743,0.88448 9.6078,0.55476 0.5335,-0.3297 8.9465,0.34606 18.6956,1.50168 9.749,1.15564 22.8256,2.68643 29.0589,3.40176 6.2333,0.71534 16.4333,2.1495 22.6667,3.18703 6.2333,1.03753 16.1333,2.55831 22,3.37949 5.8666,0.82119 12.7666,2.03182 15.3333,2.6903 2.5667,0.65848 9.4667,2.12998 15.3333,3.27 5.8667,1.14002 13.9667,2.94668 18,4.01478 4.0334,1.06811 10.9334,2.84934 15.3334,3.95827 4.4,1.10895 11.3,2.98236 15.3333,4.16313 4.0333,1.18079 9.1333,2.65371 11.3333,3.27316 8.2741,2.32971 32.20878,11.38776 44.66678,16.90408 43.7459,19.37035 76.4899,43.52667 97.4383,71.88344 8.9031,12.05167 17.8862,30.90521 21.8058,45.76524 3.4833,13.20626 3.5906,14.65981 3.1406,42.54969 -0.4226,26.18764 -0.7613,29.74536 -3.6373,38.20967 -4.5901,13.50914 -15.9187,29.8648 -27.2866,39.39509 -9.9473,8.33932 -28.427,18.17932 -40.7941,21.72196 -14.8294,4.24792 -22.1549,5.94236 -28.7083,6.64037 -6.4934,0.69161 -6.7923,0.57148 -9.3333,-3.75144 -6.2788,-10.68188 -27.1769,-41.14506 -37.04878,-54.00598 -14.6554,-19.09291 -52.9674,-57.07238 -68.6105,-68.01526 -15.783,-11.04073 -33.2305,-20.00994 -46.8825,-24.10079 l -10.7367,-3.21728 -0.026,-22 c -0.03,-25.16523 -1.6081,-34.0093 -8.5142,-47.72307 -5.0168,-9.96205 -16.8647,-23.12271 -25.9749,-28.85303 -3.2095,-2.01877 -9.8095,-5.23296 -14.6667,-7.14262 -7.921,-3.1143 -10.6863,-3.4795 -26.8312,-3.54338 -15.52,-0.0615 -19.243,0.35807 -27.0216,3.04467 -22.5168,7.77688 -39.75,25.59443 -47.025,48.61959 -2.9549,9.35209 -3.2867,12.68336 -3.2867,33 v 22.59784 h -58.6667 -58.6667 v -22.59784 c 0,-20.31664 -0.3317,-23.64791 -3.2866,-33 -7.2751,-23.02516 -24.5083,-40.84271 -47.025,-48.61959 -12.0975,-4.17825 -39.5805,-4.51311 -51.0217,-0.62164 -18.1541,6.17471 -35.905,21.26461 -43.7428,37.18547 -6.5591,13.32353 -8.2105,22.83396 -8.2743,47.6536 l -0.056,22 -13.7111,4.4027 c -14.8372,4.76432 -28.7063,12.08743 -45.4796,24.014 -13.839,9.84023 -50.68188,46.3602 -64.81791,64.24996 -10.00352,12.65988 -32.51632,45.2126 -39.251,56.75557 -1.46666,2.5138 -3.26666,4.47616 -4,4.36077 -0.73333,-0.11533 -3.43333,-0.43673 -6,-0.71412 z"
     id="path3715"
     inkscape:connector-curvature="0" />
</svg>
